<?xml version="1.0" standalone="no"?>
<!DOCTYPE svg PUBLIC "-//W3C//DTD SVG 20010904//EN"
 "http://www.w3.org/TR/2001/REC-SVG-20010904/DTD/svg10.dtd">
<svg version="1.0" xmlns="http://www.w3.org/2000/svg"
 width="700.000000pt" height="700.000000pt" viewBox="0 0 700.000000 700.000000"
 preserveAspectRatio="xMidYMid meet">
<metadata>
Created by potrace 1.14, written by Peter Selinger 2001-2017
</metadata>
<g transform="translate(0.000000,700.000000) scale(0.100000,-0.100000)"
fill="#000000" stroke="none">
<path d="M1049 5765 c0 -88 0 -4571 1 -4595 0 -14 52 -16 445 -16 440 0 446 0
450 21 2 11 3 425 3 920 0 495 2 945 6 1000 14 210 47 360 107 481 87 177 220
283 426 340 114 31 318 29 406 -5 196 -76 299 -203 322 -398 4 -32 9 -67 11
-78 11 -60 17 -471 18 -1325 l1 -955 443 0 c244 -1 446 3 449 8 7 12 5 2144
-2 2282 -15 273 -37 404 -95 553 -87 225 -236 387 -456 497 -182 90 -371 133
-589 133 -368 0 -673 -129 -946 -400 -54 -54 -99 -98 -101 -98 -2 0 -3 386 -3
858 l0 857 -447 0 -448 1 -1 -81z"/>
<path d="M5059 5835 c-4 -39 -3 -808 1 -814 9 -13 888 -10 893 3 3 10 1 803
-2 816 -2 11 -891 6 -892 -5z"/>
<path d="M5085 4550 l-29 -5 -1 -1680 c0 -924 1 -1687 3 -1695 3 -14 56 -16
450 -15 l447 0 0 1698 0 1697 -25 1 c-134 3 -823 3 -845 -1z"/>
</g>
</svg>
