<?xml version="1.0" encoding="UTF-8" standalone="no"?>
<svg
   xmlns:dc="http://purl.org/dc/elements/1.1/"
   xmlns:cc="http://creativecommons.org/ns#"
   xmlns:rdf="http://www.w3.org/1999/02/22-rdf-syntax-ns#"
   xmlns:svg="http://www.w3.org/2000/svg"
   xmlns="http://www.w3.org/2000/svg"
   xmlns:sodipodi="http://sodipodi.sourceforge.net/DTD/sodipodi-0.dtd"
   xmlns:inkscape="http://www.inkscape.org/namespaces/inkscape"
   width="66.975609mm"
   height="71.60347mm"
   viewBox="0 0 66.975609 71.60347"
   version="1.1"
   id="svg8"
   sodipodi:docname="gobbler_logo_2.svg"
   inkscape:version="1.0.2-2 (e86c870879, 2021-01-15)">
  <defs
     id="defs2" />
  <sodipodi:namedview
     id="base"
     pagecolor="#ffffff"
     bordercolor="#666666"
     borderopacity="1.0"
     inkscape:pageopacity="0.0"
     inkscape:pageshadow="2"
     inkscape:zoom="1.0509681"
     inkscape:cx="762.16279"
     inkscape:cy="-94.925182"
     inkscape:document-units="mm"
     inkscape:current-layer="layer1"
     inkscape:document-rotation="0"
     showgrid="false"
     inkscape:window-width="2736"
     inkscape:window-height="1730"
     inkscape:window-x="-11"
     inkscape:window-y="-11"
     inkscape:window-maximized="1"
     fit-margin-top="0"
     fit-margin-left="0"
     fit-margin-right="0"
     fit-margin-bottom="0" />
  <metadata
     id="metadata5">
    <rdf:RDF>
      <cc:Work
         rdf:about="">
        <dc:format>image/svg+xml</dc:format>
        <dc:type
           rdf:resource="http://purl.org/dc/dcmitype/StillImage" />
        <dc:title></dc:title>
      </cc:Work>
    </rdf:RDF>
  </metadata>
  <g
     inkscape:label="Layer 1"
     inkscape:groupmode="layer"
     id="layer1"
     transform="translate(-35.571802,-59.828299)">
    <path
       id="path849"
       style="fill:#1da1f2;fill-opacity:1;stroke:none;stroke-width:0.999999px;stroke-linecap:butt;stroke-linejoin:miter;stroke-opacity:1"
       d="m 173.2168,226.13281 c -8.25208,-0.24426 -16.64198,3.9224 -21.03761,14.58552 -4.01966,-1.15335 -6.34093,2.37136 -7.49364,8.10394 0,0.13449 -8.08915,4.58133 -9.66016,7.43945 -0.82874,1.50771 -0.52734,5.13476 -0.52734,5.13476 2.43757,-2.17025 7.94203,-2.12982 11.78125,-2.89843 1.20172,1.40429 1.71088,2.69727 3.94922,4.10156 0.47493,4.69807 0.79642,7.53929 0.25,10.44727 -0.48491,2.58054 -13.46854,17.0873 -3.29102,19.2207 -1.70376,6.68629 -5.82119,16.76978 1.75,15.61719 -13.83612,40.35994 -17.60238,71.53731 -4.51562,87.07226 4.00341,13.46857 7.34933,27.55425 22.25,30.80664 10.81724,9.58606 26.20924,16.07144 55.18878,15.34441 1.46296,6.73219 4.80184,11.22724 7.19403,13.83723 -0.0741,7.64818 -2.80475,14.58718 -7.47071,22.15039 -5.237,0.84662 -10.55654,3.33991 -14.9746,3.27539 -6.99742,-0.10204 -10.56978,1.48815 -15.67774,4.91407 h 8.89063 l -2.80665,6.78515 c 5.102,-2.31791 8.78631,-3.76397 11.38282,-4.82031 3.99067,-1.62353 8.80337,-1.18563 12.80664,-0.57422 2.58004,0.39402 5.91614,-2.27397 8.33398,-0.45508 l -2.10547,5.38282 c 3.0854,-1.23531 5.77988,-1.88487 7.25391,-0.70313 l -3.50977,5.84961 c 3.73321,-1.4496 7.95356,-3.31534 12.85743,-3.26367 4.82066,-1.7469 12.16958,-2.04282 20.60156,-2.58594 1.03717,-2.63025 1.05058,-5.85286 -0.27344,-8.91016 L 270.7207,478.5 c 0,0 -3.53716,-0.69318 -4.56836,-1.92383 l 0.67578,-4.34375 c 4.01523,2.01727 8.26503,2.90414 12.50782,1.7207 22.4156,13.79225 14.19813,-0.95635 14.19813,-0.95635 0,0 12.51509,14.36107 14.68077,1.88409 2.47579,3.02094 10.09735,4.82457 8.27149,-1.23828 13.64245,5.14061 0,-11.50391 0,-11.50391 0.37475,0.68705 12.01078,5.68746 1.86523,-10.88086 8.33343,1.6362 0.35352,-8.98437 0.35352,-8.98437 0,0 22.01014,5.72509 23.66992,-2.73047 12.77174,0.48162 11.8556,-5.67355 13.49414,-10.58985 9.95866,-0.43812 12.32279,-5.01862 10.58984,-11.83398 10.54271,-4.60581 11.07553,-10.71404 7.47461,-17.44141 8.82486,-8.2168 7.70555,-14.60044 3.11329,-20.3457 4.90638,-4.42934 5.67753,-8.85972 4.56835,-13.28906 7.68133,-8.23975 4.44205,-13.9561 0.22266,-20.0957 4.92129,-4.49726 8.37579,-9.98285 3.09961,-16.23829 4.49076,-8.77347 1.26793,-14.40424 -3.73828,-19.30859 3.39519,-4.30631 2.5274,-7.48285 0.62305,-10.38281 -0.76097,-9.93223 -5.37178,-10.23983 -9.55079,-11.62696 0.34203,-5.69583 4.08541,-11.86015 -5.39575,-15.58328 0.8132,-9.09823 -4.32675,-7.97581 -9.34448,-7.87765 -1.41877,-7.42902 -1.89517,-15.3634 -12.91602,-17.64844 0,-0.82681 -3.73305,-14.2491 -16.15234,-7.26563 -11.98212,-32.81558 -44.87402,30.73432 -48.69336,45.30079 -36.20458,1.04351 -69.01934,-0.10749 -99.30664,38.02343 -3.9132,-3.2093 -3.93987,-16.25141 -0.77148,-25.22851 l 13.90039,-39.38867 c 6.65315,-18.85062 -6.62154,-32.18274 -20.375,-32.58985 z m 70.36718,221.55078 c 0,0 6.90859,12.0133 16.40235,19.95508 0.49125,5.59903 0.21646,10.93767 -2.83594,15.54102 l -11.23242,3.04101 c -3.8285,-0.70068 -7.58795,-1.71075 -10.99609,-0.46679 l -5.16016,-6.7168 0.94726,-3.3457 4.83204,-2.93555 -3.66211,-1.04102 6.31836,-15.20898 c 3.43921,-1.57081 4.29661,-5.29389 5.38671,-8.82227 z"
       transform="scale(0.26458333)"
       sodipodi:nodetypes="sccscccscccccccccccssccccccccccccccccccccccccccccccccccccsccccccccccc" />
  </g>
</svg>
