<?xml version="1.0" encoding="UTF-8" standalone="no"?>
<svg
   xmlns:dc="http://purl.org/dc/elements/1.1/"
   xmlns:cc="http://creativecommons.org/ns#"
   xmlns:rdf="http://www.w3.org/1999/02/22-rdf-syntax-ns#"
   xmlns:svg="http://www.w3.org/2000/svg"
   xmlns="http://www.w3.org/2000/svg"
   xmlns:sodipodi="http://sodipodi.sourceforge.net/DTD/sodipodi-0.dtd"
   xmlns:inkscape="http://www.inkscape.org/namespaces/inkscape"
   width="68.515305mm"
   height="72.059029mm"
   viewBox="0 0 68.515305 72.059029"
   version="1.1"
   id="svg8"
   sodipodi:docname="gobbler_logo_2.svg"
   inkscape:version="1.0.2-2 (e86c870879, 2021-01-15)">
  <defs
     id="defs2" />
  <sodipodi:namedview
     id="base"
     pagecolor="#ffffff"
     bordercolor="#666666"
     borderopacity="1.0"
     inkscape:pageopacity="0.0"
     inkscape:pageshadow="2"
     inkscape:zoom="0.69512216"
     inkscape:cx="159.07343"
     inkscape:cy="-455.32938"
     inkscape:document-units="mm"
     inkscape:current-layer="layer1"
     inkscape:document-rotation="0"
     showgrid="false"
     inkscape:window-width="1080"
     inkscape:window-height="1857"
     inkscape:window-x="-8"
     inkscape:window-y="-8"
     inkscape:window-maximized="1"
     fit-margin-top="0"
     fit-margin-left="0"
     fit-margin-right="0"
     fit-margin-bottom="0"
     showborder="true" />
  <metadata
     id="metadata5">
    <rdf:RDF>
      <cc:Work
         rdf:about="">
        <dc:format>image/svg+xml</dc:format>
        <dc:type
           rdf:resource="http://purl.org/dc/dcmitype/StillImage" />
        <dc:title></dc:title>
      </cc:Work>
    </rdf:RDF>
  </metadata>
  <g
     inkscape:label="Layer 1"
     inkscape:groupmode="layer"
     id="layer1"
     transform="translate(-33.470446,-59.896592)">
    <path
       id="path849"
       style="fill:#1da1f2;fill-opacity:1;stroke:none;stroke-width:0.264583px;stroke-linecap:butt;stroke-linejoin:miter;stroke-opacity:1"
       d="m 42.980054,61.84877 c -2.181335,0.114143 -4.303571,1.394414 -5.231964,4.301358 -1.084929,-0.21716 -1.620776,0.762522 -1.800705,2.299127 0.003,0.03547 -2.033956,1.383112 -2.386385,2.170784 -0.185914,0.415509 -0.02795,1.365431 -0.02795,1.365431 0.595822,-0.625032 2.048206,-0.733473 3.043967,-1.019224 0.347275,0.344306 0.509516,0.674244 1.130145,0.99612 0.226891,1.22859 0.373144,1.970857 0.291976,2.749505 -0.07203,0.690973 -3.181892,4.797295 -0.451948,5.139652 -0.304602,1.80002 -1.172176,4.548097 0.799385,4.080342 -2.775261,10.942177 -3.093817,19.245055 0.69326,23.058405 1.347111,3.46501 2.534198,7.10696 6.533835,7.6422 3.059892,2.29375 7.259044,3.67089 14.885135,2.85213 0.531444,1.74361 1.509158,2.85669 2.196446,3.49318 0.145946,2.01841 -0.423977,3.90729 -1.490729,6.00264 -1.362663,0.33657 -2.711462,1.10914 -3.877888,1.18772 -1.847408,0.12449 -2.755021,0.62112 -4.027846,1.63505 l 2.344433,-0.19237 -0.593293,1.84995 c 1.295229,-0.72162 2.235481,-1.18266 2.897318,-1.5174 1.017198,-0.51447 2.295769,-0.50312 3.364649,-0.42852 0.688874,0.0481 1.510866,-0.72765 2.1878,-0.30033 l -0.438737,1.46499 c 0.786882,-0.3925 1.483354,-0.62209 1.897622,-0.34236 l -0.798946,1.61847 c 0.953071,-0.46304 2.025595,-1.04634 3.319849,-1.13883 1.233397,-0.56495 3.164881,-0.802 5.376619,-1.12767 0.216588,-0.71603 0.150395,-1.56611 -0.264898,-2.34366 l 1.600914,-1.05792 c 0,0 -0.947738,-0.10625 -1.246289,-0.40846 l 0.08422,-1.16006 c 1.102453,0.44507 2.242303,0.58698 3.335507,0.18311 6.209357,3.15196 3.723313,-0.5594 3.723313,-0.5594 0,0 3.610929,3.51618 3.912043,0.17917 0.718224,0.74305 2.767034,1.05375 2.154375,-0.5055 3.708705,1.06038 -0.248914,-3.03354 -0.248914,-3.03354 0.113687,0.17306 3.290269,1.23987 0.256422,-2.90962 2.232905,0.25116 -0.101176,-2.3768 -0.101176,-2.3768 0,0 5.927886,1.03345 6.18261,-1.23217 3.378291,-0.14934 3.003526,-1.75262 3.329229,-3.08449 2.61659,-0.331 3.140894,-1.59004 2.536454,-3.34971 2.680428,-1.44267 2.688758,-3.06493 1.593645,-4.76099 2.149303,-2.3577 1.716023,-4.016823 0.380743,-5.432467 1.19795,-1.274166 1.30544,-2.45913 0.91712,-3.603134 1.84725,-2.339003 0.86938,-3.776297 -0.37611,-5.303996 1.20042,-1.292398 1.99268,-2.813679 0.46601,-4.349057 0.99436,-2.410707 0.0227,-3.825791 -1.403564,-5.010733 0.802124,-1.209024 0.504554,-2.027892 -0.06035,-2.751398 -0.415574,-2.602635 -1.638087,-2.583982 -2.770094,-2.859342 -0.03305,-1.509374 0.820689,-3.215884 -1.760024,-3.992516 0.01758,-2.416772 -1.313528,-2.009578 -2.634564,-1.875123 C 91.887841,66.163002 91.590536,64.081037 88.634928,63.71694 88.617038,63.498913 87.34222,60.040267 84.218394,62.150509 80.3487,53.756397 73.050254,71.226016 72.358286,75.149793 62.833821,76.208335 54.15576,76.614845 46.99414,87.325195 45.892799,86.563583 45.60357,83.124994 46.244824,80.689203 l 2.813225,-10.687446 c 1.346538,-5.11481 -2.442431,-8.343222 -6.077987,-8.152987 z m 23.349399,56.89973 c 0,0 2.081711,3.01839 4.757027,4.90721 0.25069,1.46581 0.293743,2.87953 -0.411562,4.15948 l -2.896157,1.04495 c -1.024726,-0.10193 -2.037936,-0.28694 -2.909738,0.11482 l -1.506053,-1.65955 0.177398,-0.90274 1.210677,-0.87865 -0.988212,-0.19527 1.33705,-4.14729 c 0.872923,-0.48862 1.018458,-1.48895 1.22957,-2.44296 z"
       sodipodi:nodetypes="sccscccscccccccccccssccccccccccccccccccccccccccccccccccccsccccccccccc" />
  </g>
</svg>
