<?xml version="1.0" encoding="UTF-8" standalone="no"?>
<svg
   xmlns:dc="http://purl.org/dc/elements/1.1/"
   xmlns:cc="http://creativecommons.org/ns#"
   xmlns:rdf="http://www.w3.org/1999/02/22-rdf-syntax-ns#"
   xmlns:svg="http://www.w3.org/2000/svg"
   xmlns="http://www.w3.org/2000/svg"
   xmlns:sodipodi="http://sodipodi.sourceforge.net/DTD/sodipodi-0.dtd"
   xmlns:inkscape="http://www.inkscape.org/namespaces/inkscape"
   width="68.029083mm"
   height="71.602913mm"
   viewBox="0 0 68.029084 71.602913"
   version="1.1"
   id="svg8"
   sodipodi:docname="gobbler_logo_2.svg"
   inkscape:version="1.0.2-2 (e86c870879, 2021-01-15)">
  <defs
     id="defs2" />
  <sodipodi:namedview
     id="base"
     pagecolor="#ffffff"
     bordercolor="#666666"
     borderopacity="1.0"
     inkscape:pageopacity="0.0"
     inkscape:pageshadow="2"
     inkscape:zoom="1.0183303"
     inkscape:cx="150.43184"
     inkscape:cy="-129.05635"
     inkscape:document-units="mm"
     inkscape:current-layer="layer1"
     inkscape:document-rotation="0"
     showgrid="false"
     inkscape:window-width="2736"
     inkscape:window-height="1730"
     inkscape:window-x="-11"
     inkscape:window-y="-11"
     inkscape:window-maximized="1"
     fit-margin-top="0"
     fit-margin-left="0"
     fit-margin-right="0"
     fit-margin-bottom="0"
     showborder="true" />
  <metadata
     id="metadata5">
    <rdf:RDF>
      <cc:Work
         rdf:about="">
        <dc:format>image/svg+xml</dc:format>
        <dc:type
           rdf:resource="http://purl.org/dc/dcmitype/StillImage" />
        <dc:title></dc:title>
      </cc:Work>
    </rdf:RDF>
  </metadata>
  <g
     inkscape:label="Layer 1"
     inkscape:groupmode="layer"
     id="layer1"
     transform="translate(-34.990617,-59.417189)">
    <path
       id="path849"
       style="fill:#1da1f2;fill-opacity:1;stroke:none;stroke-width:0.264583px;stroke-linecap:butt;stroke-linejoin:miter;stroke-opacity:1"
       d="m 44.730131,60.412369 c -2.183489,0.06022 -4.336708,1.287664 -5.336636,4.170784 -1.079233,-0.243898 -1.639121,0.722246 -1.856958,2.253937 0.0021,0.03553 -2.067507,1.332439 -2.439288,2.111163 -0.196123,0.410789 -0.06168,1.364324 -0.06168,1.364324 0.611082,-0.610121 2.065702,-0.682646 3.068219,-0.943709 0.338662,0.352781 0.492702,0.686627 1.105189,1.023738 0.196468,1.23382 0.324338,1.979474 0.223958,2.755879 -0.08908,0.688983 -3.299443,4.717219 -0.578791,5.126917 -0.348981,1.791945 -1.284184,4.517749 0.698332,4.098847 -3.044753,10.870271 -3.568343,19.162741 0.123365,23.068491 1.261093,3.49724 2.357839,7.1674 6.343032,7.8013 3.002288,2.36864 7.166135,3.84911 14.810126,3.21901 0.488204,1.75621 1.43812,2.8931 2.109473,3.54638 0.09603,2.0214 -0.520382,3.89562 -1.638576,5.96398 -1.370562,0.3028 -2.738037,1.04181 -3.906048,1.09155 -1.84992,0.0788 -2.769526,0.55286 -4.067012,1.53503 l 2.34847,-0.13439 -0.638817,1.83473 c 1.312662,-0.6894 2.264017,-1.12707 2.933922,-1.44535 1.029598,-0.48919 2.307499,-0.44625 3.374209,-0.34527 0.687476,0.0651 1.528383,-0.6901 2.194553,-0.24618 l -0.474798,1.4537 c 0.796339,-0.37294 1.498271,-0.58525 1.905502,-0.29537 l -0.838689,1.59824 c 0.96422,-0.43936 2.050828,-0.99598 3.346972,-1.05647 1.246978,-0.5343 3.183729,-0.72356 5.402838,-0.99449 0.234212,-0.71046 0.189042,-1.56191 -0.206914,-2.34949 l 1.626562,-1.01804 c 0,0 -0.944824,-0.12963 -1.235817,-0.43913 l 0.112855,-1.15762 c 1.09112,0.47217 2.227116,0.6422 3.329965,0.26546 6.129589,3.30441 3.735997,-0.46724 3.735997,-0.46724 0,0 3.522956,3.60432 3.906422,0.27577 0.699647,0.76056 2.740155,1.12179 2.166206,-0.45212 3.681376,1.15168 -0.173891,-3.03877 -0.173891,-3.03877 0.109377,0.17582 3.258633,1.32078 0.328229,-2.90239 2.226019,0.30625 -0.04242,-2.37858 -0.04242,-2.37858 0,0 5.900544,1.17959 6.211165,-1.07904 3.380949,-0.0658 3.045909,-1.67788 3.404418,-3.0013 2.623969,-0.26625 3.179219,-1.51196 2.618438,-3.28602 2.715257,-1.37601 2.763657,-2.99757 1.710787,-4.72017 2.20689,-2.30388 1.81474,-3.973197 0.51484,-5.421398 1.22906,-1.24418 1.3658,-2.426127 1.00586,-3.579376 1.90447,-2.29265 0.96241,-3.753665 -0.24495,-5.311669 1.23198,-1.262346 2.06158,-2.763589 0.57331,-4.336216 1.05362,-2.385405 0.11721,-3.824063 -1.27934,-5.04388 0.83175,-1.188838 0.5545,-2.014808 0.008,-2.752049 -0.35115,-2.612108 -1.573752,-2.623664 -2.69861,-2.926908 0.0042,-1.50973 0.89989,-3.194626 -1.660848,-4.03478 0.07728,-2.4156 -1.263478,-2.041417 -2.587433,-1.939641 -0.487078,-1.940938 -0.732855,-4.029613 -3.678566,-4.46662 -0.0125,-0.218403 -1.201477,-3.707489 -4.376485,-1.675068 C 82.287302,53.2457 74.559478,70.52967 73.77078,74.435154 64.223069,75.25806 55.537614,75.450045 48.113569,85.98019 47.031381,85.191601 46.827194,81.746916 47.528431,79.327711 l 3.076412,-10.61468 C 52.077337,63.63305 48.369286,60.312013 44.730139,60.41237 Z M 66.666633,117.8716 c 0,0 2.006503,3.0689 4.634337,5.02324 0.214399,1.47156 0.222512,2.88591 -0.514201,4.14805 l -2.921089,0.97307 c -1.021895,-0.12721 -2.030225,-0.3372 -2.911687,0.0429 l -1.464592,-1.69625 0.199647,-0.89808 1.232015,-0.84847 -0.983086,-0.21963 1.439105,-4.11299 c 0.884729,-0.4669 1.054934,-1.46333 1.289551,-2.41184 z"
       sodipodi:nodetypes="sccscccscccccccccccssccccccccccccccccccccccccccccccccccccsccccccccccc" />
  </g>
</svg>
